<svg width="12" height="75" viewBox="0 0 12 75" fill="none" xmlns="http://www.w3.org/2000/svg">
<path d="M0.73828 7.41017L0.73828 0.38617L11.9383 0.38617L11.9383 7.41017L9.81028 9.53817L2.86628 9.53817L0.73828 7.41017ZM9.05828 3.58617L3.61828 3.58617L3.61828 5.98617L3.97028 6.33817L8.70628 6.33817L9.05828 5.98617L9.05828 3.58617ZM0.738279 19.5387L0.73828 11.6987L11.9383 11.6987L11.9383 19.4427L9.05828 19.4427L9.05828 14.8987L7.50628 14.8987L7.50628 18.2587L5.10628 18.2587L5.10628 14.8987L3.61828 14.8987L3.61828 19.5387L0.738279 19.5387ZM0.738279 24.6643L0.738279 21.4643L11.9383 21.4643L11.9383 28.6163L10.1943 30.3603L6.49828 30.3603L5.36228 29.2243L4.16228 30.4243L0.738279 30.4243L0.738279 27.2243L3.69828 27.2243L4.05028 26.8723L4.05028 24.6643L0.738279 24.6643ZM6.96228 27.1603L9.37828 27.1603L9.37828 24.6643L6.61028 24.6643L6.61028 26.8083L6.96228 27.1603ZM0.738278 40.4293L0.738279 32.5893L11.9383 32.5893L11.9383 40.3333L9.05828 40.3333L9.05828 35.7893L7.50628 35.7893L7.50628 39.1493L5.10628 39.1493L5.10628 35.7893L3.61828 35.7893L3.61828 40.4293L0.738278 40.4293ZM0.738278 49.2669L0.738278 43.6989L2.48228 41.9549L10.1943 41.9549L11.9383 43.6989L11.9383 49.2669L10.1943 51.0109L7.52228 51.0109L7.52228 47.8109L9.05828 47.8109L9.05828 45.1549L3.61828 45.1549L3.61828 47.8109L5.15428 47.8109L5.15428 51.0109L2.48228 51.0109L0.738278 49.2669ZM0.738278 53.0112L11.9383 53.0112L11.9383 56.2112L7.74628 56.2112L7.74628 59.5712L11.9383 59.5712L11.9383 62.7712L0.738277 62.7712L0.738277 59.5712L5.02628 59.5712L5.02628 56.2112L0.738278 56.2112L0.738278 53.0112ZM0.738277 67.5637L0.738277 64.3637L2.91428 64.3637L11.9383 67.1797L11.9383 71.6277L2.93028 74.4437L0.738277 74.4437L0.738277 71.2437L2.56228 71.2437L2.94628 71.1477L2.94628 67.6597L2.56228 67.5637L0.738277 67.5637ZM9.41028 69.4037L5.50628 68.2197L5.50628 70.5877L9.41028 69.4037Z" fill="black"/>
<path d="M0.73828 7.41017L0.68828 7.41017L0.68828 7.43088L0.702924 7.44553L0.73828 7.41017ZM0.73828 0.38617L0.73828 0.33617L0.68828 0.33617L0.68828 0.38617L0.73828 0.38617ZM11.9383 0.38617L11.9883 0.38617L11.9883 0.33617L11.9383 0.33617L11.9383 0.38617ZM11.9383 7.41017L11.9736 7.44553L11.9883 7.43088L11.9883 7.41017L11.9383 7.41017ZM9.81028 9.53817L9.81028 9.58817L9.83099 9.58817L9.84564 9.57353L9.81028 9.53817ZM2.86628 9.53817L2.83092 9.57353L2.84557 9.58817L2.86628 9.58817L2.86628 9.53817ZM9.05828 3.58617L9.10828 3.58617L9.10828 3.53617L9.05828 3.53617L9.05828 3.58617ZM3.61828 3.58617L3.61828 3.53617L3.56828 3.53617L3.56828 3.58617L3.61828 3.58617ZM3.61828 5.98617L3.56828 5.98617L3.56828 6.00688L3.58292 6.02153L3.61828 5.98617ZM3.97028 6.33817L3.93492 6.37353L3.94957 6.38817L3.97028 6.38817L3.97028 6.33817ZM8.70628 6.33817L8.70628 6.38817L8.72699 6.38817L8.74164 6.37353L8.70628 6.33817ZM9.05828 5.98617L9.09364 6.02153L9.10828 6.00688L9.10828 5.98617L9.05828 5.98617ZM0.78828 7.41017L0.78828 0.38617L0.68828 0.38617L0.68828 7.41017L0.78828 7.41017ZM0.73828 0.43617L11.9383 0.43617L11.9383 0.33617L0.73828 0.33617L0.73828 0.43617ZM11.8883 0.38617L11.8883 7.41017L11.9883 7.41017L11.9883 0.38617L11.8883 0.38617ZM11.9029 7.37482L9.77492 9.50282L9.84564 9.57353L11.9736 7.44553L11.9029 7.37482ZM9.81028 9.48817L2.86628 9.48817L2.86628 9.58817L9.81028 9.58817L9.81028 9.48817ZM2.90163 9.50281L0.773635 7.37482L0.702924 7.44553L2.83092 9.57353L2.90163 9.50281ZM9.05828 3.53617L3.61828 3.53617L3.61828 3.63617L9.05828 3.63617L9.05828 3.53617ZM3.56828 3.58617L3.56828 5.98617L3.66828 5.98617L3.66828 3.58617L3.56828 3.58617ZM3.58292 6.02153L3.93492 6.37353L4.00564 6.30282L3.65364 5.95081L3.58292 6.02153ZM3.97028 6.38817L8.70628 6.38817L8.70628 6.28817L3.97028 6.28817L3.97028 6.38817ZM8.74164 6.37353L9.09364 6.02153L9.02293 5.95082L8.67092 6.30282L8.74164 6.37353ZM9.10828 5.98617L9.10828 3.58617L9.00828 3.58617L9.00828 5.98617L9.10828 5.98617ZM0.738279 19.5387L0.688279 19.5387L0.688279 19.5887L0.738279 19.5887L0.738279 19.5387ZM0.73828 11.6987L0.73828 11.6487L0.68828 11.6487L0.68828 11.6987L0.73828 11.6987ZM11.9383 11.6987L11.9883 11.6987L11.9883 11.6487L11.9383 11.6487L11.9383 11.6987ZM11.9383 19.4427L11.9383 19.4927L11.9883 19.4927L11.9883 19.4427L11.9383 19.4427ZM9.05828 19.4427L9.00828 19.4427L9.00828 19.4927L9.05828 19.4927L9.05828 19.4427ZM9.05828 14.8987L9.10828 14.8987L9.10828 14.8487L9.05828 14.8487L9.05828 14.8987ZM7.50628 14.8987L7.50628 14.8487L7.45628 14.8487L7.45628 14.8987L7.50628 14.8987ZM7.50628 18.2587L7.50628 18.3087L7.55628 18.3087L7.55628 18.2587L7.50628 18.2587ZM5.10628 18.2587L5.05628 18.2587L5.05628 18.3087L5.10628 18.3087L5.10628 18.2587ZM5.10628 14.8987L5.15628 14.8987L5.15628 14.8487L5.10628 14.8487L5.10628 14.8987ZM3.61828 14.8987L3.61828 14.8487L3.56828 14.8487L3.56828 14.8987L3.61828 14.8987ZM3.61828 19.5387L3.61828 19.5887L3.66828 19.5887L3.66828 19.5387L3.61828 19.5387ZM0.788279 19.5387L0.78828 11.6987L0.68828 11.6987L0.688279 19.5387L0.788279 19.5387ZM0.73828 11.7487L11.9383 11.7487L11.9383 11.6487L0.73828 11.6487L0.73828 11.7487ZM11.8883 11.6987L11.8883 19.4427L11.9883 19.4427L11.9883 11.6987L11.8883 11.6987ZM11.9383 19.3927L9.05828 19.3927L9.05828 19.4927L11.9383 19.4927L11.9383 19.3927ZM9.10828 19.4427L9.10828 14.8987L9.00828 14.8987L9.00828 19.4427L9.10828 19.4427ZM9.05828 14.8487L7.50628 14.8487L7.50628 14.9487L9.05828 14.9487L9.05828 14.8487ZM7.45628 14.8987L7.45628 18.2587L7.55628 18.2587L7.55628 14.8987L7.45628 14.8987ZM7.50628 18.2087L5.10628 18.2087L5.10628 18.3087L7.50628 18.3087L7.50628 18.2087ZM5.15628 18.2587L5.15628 14.8987L5.05628 14.8987L5.05628 18.2587L5.15628 18.2587ZM5.10628 14.8487L3.61828 14.8487L3.61828 14.9487L5.10628 14.9487L5.10628 14.8487ZM3.56828 14.8987L3.56828 19.5387L3.66828 19.5387L3.66828 14.8987L3.56828 14.8987ZM3.61828 19.4887L0.738279 19.4887L0.738279 19.5887L3.61828 19.5887L3.61828 19.4887ZM0.738279 24.6643L0.688279 24.6643L0.688279 24.7143L0.738279 24.7143L0.738279 24.6643ZM0.738279 21.4643L0.738279 21.4143L0.688279 21.4143L0.688279 21.4643L0.738279 21.4643ZM11.9383 21.4643L11.9883 21.4643L11.9883 21.4143L11.9383 21.4143L11.9383 21.4643ZM11.9383 28.6163L11.9736 28.6517L11.9883 28.637L11.9883 28.6163L11.9383 28.6163ZM10.1943 30.3603L10.1943 30.4103L10.215 30.4103L10.2296 30.3957L10.1943 30.3603ZM6.49828 30.3603L6.46292 30.3957L6.47757 30.4103L6.49828 30.4103L6.49828 30.3603ZM5.36228 29.2243L5.39763 29.1889L5.36228 29.1536L5.32692 29.1889L5.36228 29.2243ZM4.16228 30.4243L4.16228 30.4743L4.18299 30.4743L4.19763 30.4597L4.16228 30.4243ZM0.738279 30.4243L0.688279 30.4243L0.688279 30.4743L0.738279 30.4743L0.738279 30.4243ZM0.738279 27.2243L0.738279 27.1743L0.688279 27.1743L0.688279 27.2243L0.738279 27.2243ZM3.69828 27.2243L3.69828 27.2743L3.71899 27.2743L3.73363 27.2597L3.69828 27.2243ZM4.05028 26.8723L4.08563 26.9077L4.10028 26.893L4.10028 26.8723L4.05028 26.8723ZM4.05028 24.6643L4.10028 24.6643L4.10028 24.6143L4.05028 24.6143L4.05028 24.6643ZM6.96228 27.1603L6.92692 27.1957L6.94157 27.2103L6.96228 27.2103L6.96228 27.1603ZM9.37828 27.1603L9.37828 27.2103L9.42828 27.2103L9.42828 27.1603L9.37828 27.1603ZM9.37828 24.6643L9.42828 24.6643L9.42828 24.6143L9.37828 24.6143L9.37828 24.6643ZM6.61028 24.6643L6.61028 24.6143L6.56028 24.6143L6.56028 24.6643L6.61028 24.6643ZM6.61028 26.8083L6.56028 26.8083L6.56028 26.829L6.57492 26.8437L6.61028 26.8083ZM0.788279 24.6643L0.788279 21.4643L0.688279 21.4643L0.688279 24.6643L0.788279 24.6643ZM0.738279 21.5143L11.9383 21.5143L11.9383 21.4143L0.738279 21.4143L0.738279 21.5143ZM11.8883 21.4643L11.8883 28.6163L11.9883 28.6163L11.9883 21.4643L11.8883 21.4643ZM11.9029 28.5809L10.1589 30.3249L10.2296 30.3957L11.9736 28.6517L11.9029 28.5809ZM10.1943 30.3103L6.49828 30.3103L6.49828 30.4103L10.1943 30.4103L10.1943 30.3103ZM6.53363 30.3249L5.39763 29.1889L5.32692 29.2597L6.46292 30.3957L6.53363 30.3249ZM5.32692 29.1889L4.12692 30.3889L4.19763 30.4597L5.39763 29.2597L5.32692 29.1889ZM4.16228 30.3743L0.738279 30.3743L0.738279 30.4743L4.16228 30.4743L4.16228 30.3743ZM0.788279 30.4243L0.788279 27.2243L0.688279 27.2243L0.688279 30.4243L0.788279 30.4243ZM0.738279 27.2743L3.69828 27.2743L3.69828 27.1743L0.738279 27.1743L0.738279 27.2743ZM3.73363 27.2597L4.08563 26.9077L4.01492 26.8369L3.66292 27.1889L3.73363 27.2597ZM4.10028 26.8723L4.10028 24.6643L4.00028 24.6643L4.00028 26.8723L4.10028 26.8723ZM4.05028 24.6143L0.738279 24.6143L0.738279 24.7143L4.05028 24.7143L4.05028 24.6143ZM6.96228 27.2103L9.37828 27.2103L9.37828 27.1103L6.96228 27.1103L6.96228 27.2103ZM9.42828 27.1603L9.42828 24.6643L9.32828 24.6643L9.32828 27.1603L9.42828 27.1603ZM9.37828 24.6143L6.61028 24.6143L6.61028 24.7143L9.37828 24.7143L9.37828 24.6143ZM6.56028 24.6643L6.56028 26.8083L6.66028 26.8083L6.66028 24.6643L6.56028 24.6643ZM6.57492 26.8437L6.92692 27.1957L6.99763 27.1249L6.64563 26.7729L6.57492 26.8437ZM0.738278 40.4293L0.688278 40.4293L0.688278 40.4793L0.738278 40.4793L0.738278 40.4293ZM0.738279 32.5893L0.738279 32.5393L0.688279 32.5393L0.688279 32.5893L0.738279 32.5893ZM11.9383 32.5893L11.9883 32.5893L11.9883 32.5393L11.9383 32.5393L11.9383 32.5893ZM11.9383 40.3333L11.9383 40.3833L11.9883 40.3833L11.9883 40.3333L11.9383 40.3333ZM9.05828 40.3333L9.00828 40.3333L9.00828 40.3833L9.05828 40.3833L9.05828 40.3333ZM9.05828 35.7893L9.10828 35.7893L9.10828 35.7393L9.05828 35.7393L9.05828 35.7893ZM7.50628 35.7893L7.50628 35.7393L7.45628 35.7393L7.45628 35.7893L7.50628 35.7893ZM7.50628 39.1493L7.50628 39.1993L7.55628 39.1993L7.55628 39.1493L7.50628 39.1493ZM5.10628 39.1493L5.05628 39.1493L5.05628 39.1993L5.10628 39.1993L5.10628 39.1493ZM5.10628 35.7893L5.15628 35.7893L5.15628 35.7393L5.10628 35.7393L5.10628 35.7893ZM3.61828 35.7893L3.61828 35.7393L3.56828 35.7393L3.56828 35.7893L3.61828 35.7893ZM3.61828 40.4293L3.61828 40.4793L3.66828 40.4793L3.66828 40.4293L3.61828 40.4293ZM0.788278 40.4293L0.788279 32.5893L0.688279 32.5893L0.688278 40.4293L0.788278 40.4293ZM0.738279 32.6393L11.9383 32.6393L11.9383 32.5393L0.738279 32.5393L0.738279 32.6393ZM11.8883 32.5893L11.8883 40.3333L11.9883 40.3333L11.9883 32.5893L11.8883 32.5893ZM11.9383 40.2833L9.05828 40.2833L9.05828 40.3833L11.9383 40.3833L11.9383 40.2833ZM9.10828 40.3333L9.10828 35.7893L9.00828 35.7893L9.00828 40.3333L9.10828 40.3333ZM9.05828 35.7393L7.50628 35.7393L7.50628 35.8393L9.05828 35.8393L9.05828 35.7393ZM7.45628 35.7893L7.45628 39.1493L7.55628 39.1493L7.55628 35.7893L7.45628 35.7893ZM7.50628 39.0993L5.10628 39.0993L5.10628 39.1993L7.50628 39.1993L7.50628 39.0993ZM5.15628 39.1493L5.15628 35.7893L5.05628 35.7893L5.05628 39.1493L5.15628 39.1493ZM5.10628 35.7393L3.61828 35.7393L3.61828 35.8393L5.10628 35.8393L5.10628 35.7393ZM3.56828 35.7893L3.56828 40.4293L3.66828 40.4293L3.66828 35.7893L3.56828 35.7893ZM3.61828 40.3793L0.738278 40.3793L0.738278 40.4793L3.61828 40.4793L3.61828 40.3793ZM0.738278 49.2669L0.688278 49.2669L0.688278 49.2876L0.702923 49.3023L0.738278 49.2669ZM0.738278 43.6989L0.702923 43.6636L0.688278 43.6782L0.688278 43.6989L0.738278 43.6989ZM2.48228 41.9549L2.48228 41.9049L2.46157 41.9049L2.44692 41.9196L2.48228 41.9549ZM10.1943 41.9549L10.2296 41.9196L10.215 41.9049L10.1943 41.9049L10.1943 41.9549ZM11.9383 43.6989L11.9883 43.6989L11.9883 43.6782L11.9736 43.6636L11.9383 43.6989ZM11.9383 49.2669L11.9736 49.3023L11.9883 49.2876L11.9883 49.2669L11.9383 49.2669ZM10.1943 51.0109L10.1943 51.0609L10.215 51.0609L10.2296 51.0463L10.1943 51.0109ZM7.52228 51.0109L7.47228 51.0109L7.47228 51.0609L7.52228 51.0609L7.52228 51.0109ZM7.52228 47.8109L7.52228 47.7609L7.47228 47.7609L7.47228 47.8109L7.52228 47.8109ZM9.05828 47.8109L9.05828 47.8609L9.10828 47.8609L9.10828 47.8109L9.05828 47.8109ZM9.05828 45.1549L9.10828 45.1549L9.10828 45.1049L9.05828 45.1049L9.05828 45.1549ZM3.61828 45.1549L3.61828 45.1049L3.56828 45.1049L3.56828 45.1549L3.61828 45.1549ZM3.61828 47.8109L3.56828 47.8109L3.56828 47.8609L3.61828 47.8609L3.61828 47.8109ZM5.15428 47.8109L5.20428 47.8109L5.20428 47.7609L5.15428 47.7609L5.15428 47.8109ZM5.15428 51.0109L5.15428 51.0609L5.20428 51.0609L5.20428 51.0109L5.15428 51.0109ZM2.48228 51.0109L2.44692 51.0463L2.46157 51.0609L2.48228 51.0609L2.48228 51.0109ZM0.788278 49.2669L0.788278 43.6989L0.688278 43.6989L0.688278 49.2669L0.788278 49.2669ZM0.773633 43.7343L2.51763 41.9903L2.44692 41.9196L0.702923 43.6636L0.773633 43.7343ZM2.48228 42.0049L10.1943 42.0049L10.1943 41.9049L2.48228 41.9049L2.48228 42.0049ZM10.1589 41.9903L11.9029 43.7343L11.9736 43.6636L10.2296 41.9196L10.1589 41.9903ZM11.8883 43.6989L11.8883 49.2669L11.9883 49.2669L11.9883 43.6989L11.8883 43.6989ZM11.9029 49.2316L10.1589 50.9756L10.2296 51.0463L11.9736 49.3023L11.9029 49.2316ZM10.1943 50.9609L7.52228 50.9609L7.52228 51.0609L10.1943 51.0609L10.1943 50.9609ZM7.57228 51.0109L7.57228 47.8109L7.47228 47.8109L7.47228 51.0109L7.57228 51.0109ZM7.52228 47.8609L9.05828 47.8609L9.05828 47.7609L7.52228 47.7609L7.52228 47.8609ZM9.10828 47.8109L9.10828 45.1549L9.00828 45.1549L9.00828 47.8109L9.10828 47.8109ZM9.05828 45.1049L3.61828 45.1049L3.61828 45.2049L9.05828 45.2049L9.05828 45.1049ZM3.56828 45.1549L3.56828 47.8109L3.66828 47.8109L3.66828 45.1549L3.56828 45.1549ZM3.61828 47.8609L5.15428 47.8609L5.15428 47.7609L3.61828 47.7609L3.61828 47.8609ZM5.10428 47.8109L5.10428 51.0109L5.20428 51.0109L5.20428 47.8109L5.10428 47.8109ZM5.15428 50.9609L2.48228 50.9609L2.48228 51.0609L5.15428 51.0609L5.15428 50.9609ZM2.51763 50.9756L0.773633 49.2316L0.702923 49.3023L2.44692 51.0463L2.51763 50.9756ZM0.738278 53.0112L0.738278 52.9612L0.688278 52.9612L0.688278 53.0112L0.738278 53.0112ZM11.9383 53.0112L11.9883 53.0112L11.9883 52.9612L11.9383 52.9612L11.9383 53.0112ZM11.9383 56.2112L11.9383 56.2612L11.9883 56.2612L11.9883 56.2112L11.9383 56.2112ZM7.74628 56.2112L7.74628 56.1612L7.69628 56.1612L7.69628 56.2112L7.74628 56.2112ZM7.74628 59.5712L7.69628 59.5712L7.69628 59.6212L7.74628 59.6212L7.74628 59.5712ZM11.9383 59.5712L11.9883 59.5712L11.9883 59.5212L11.9383 59.5212L11.9383 59.5712ZM11.9383 62.7712L11.9383 62.8212L11.9883 62.8212L11.9883 62.7712L11.9383 62.7712ZM0.738277 62.7712L0.688277 62.7712L0.688277 62.8212L0.738277 62.8212L0.738277 62.7712ZM0.738277 59.5712L0.738277 59.5212L0.688277 59.5212L0.688277 59.5712L0.738277 59.5712ZM5.02628 59.5712L5.02628 59.6212L5.07628 59.6212L5.07628 59.5712L5.02628 59.5712ZM5.02628 56.2112L5.07628 56.2112L5.07628 56.1612L5.02628 56.1612L5.02628 56.2112ZM0.738278 56.2112L0.688278 56.2112L0.688278 56.2612L0.738278 56.2612L0.738278 56.2112ZM0.738278 53.0612L11.9383 53.0612L11.9383 52.9612L0.738278 52.9612L0.738278 53.0612ZM11.8883 53.0112L11.8883 56.2112L11.9883 56.2112L11.9883 53.0112L11.8883 53.0112ZM11.9383 56.1612L7.74628 56.1612L7.74628 56.2612L11.9383 56.2612L11.9383 56.1612ZM7.69628 56.2112L7.69628 59.5712L7.79628 59.5712L7.79628 56.2112L7.69628 56.2112ZM7.74628 59.6212L11.9383 59.6212L11.9383 59.5212L7.74628 59.5212L7.74628 59.6212ZM11.8883 59.5712L11.8883 62.7712L11.9883 62.7712L11.9883 59.5712L11.8883 59.5712ZM11.9383 62.7212L0.738277 62.7212L0.738277 62.8212L11.9383 62.8212L11.9383 62.7212ZM0.788277 62.7712L0.788277 59.5712L0.688277 59.5712L0.688277 62.7712L0.788277 62.7712ZM0.738277 59.6212L5.02628 59.6212L5.02628 59.5212L0.738277 59.5212L0.738277 59.6212ZM5.07628 59.5712L5.07628 56.2112L4.97628 56.2112L4.97628 59.5712L5.07628 59.5712ZM5.02628 56.1612L0.738278 56.1612L0.738278 56.2612L5.02628 56.2612L5.02628 56.1612ZM0.788278 56.2112L0.788278 53.0112L0.688278 53.0112L0.688278 56.2112L0.788278 56.2112ZM0.738277 67.5637L0.688277 67.5637L0.688277 67.6137L0.738277 67.6137L0.738277 67.5637ZM0.738277 64.3637L0.738277 64.3137L0.688277 64.3137L0.688277 64.3637L0.738277 64.3637ZM2.91428 64.3637L2.92917 64.3159L2.9219 64.3137L2.91428 64.3137L2.91428 64.3637ZM11.9383 67.1797L11.9883 67.1797L11.9883 67.1429L11.9532 67.1319L11.9383 67.1797ZM11.9383 71.6277L11.9532 71.6754L11.9883 71.6644L11.9883 71.6277L11.9383 71.6277ZM2.93028 74.4437L2.93028 74.4937L2.93791 74.4937L2.9452 74.4914L2.93028 74.4437ZM0.738277 74.4437L0.688277 74.4437L0.688277 74.4937L0.738277 74.4937L0.738277 74.4437ZM0.738277 71.2437L0.738277 71.1937L0.688277 71.1937L0.688277 71.2437L0.738277 71.2437ZM2.56228 71.2437L2.56228 71.2952L2.5744 71.2922L2.56228 71.2437ZM2.94628 71.1477L2.9584 71.1962L2.99628 71.1867L2.99628 71.1477L2.94628 71.1477ZM2.94628 67.6597L2.99628 67.6597L2.99628 67.6206L2.9584 67.6112L2.94628 67.6597ZM2.56228 67.5637L2.57478 67.5137L2.56228 67.5137L2.56228 67.5637ZM9.41028 69.4037L9.42479 69.4515L9.58256 69.4037L9.42479 69.3558L9.41028 69.4037ZM5.50628 68.2197L5.52079 68.1718L5.45628 68.1523L5.45628 68.2197L5.50628 68.2197ZM5.50628 70.5877L5.45628 70.5877L5.45628 70.6551L5.52079 70.6355L5.50628 70.5877ZM0.788277 67.5637L0.788277 64.3637L0.688277 64.3637L0.688277 67.5637L0.788277 67.5637ZM0.738277 64.4137L2.91428 64.4137L2.91428 64.3137L0.738277 64.3137L0.738277 64.4137ZM2.89938 64.4114L11.9234 67.2274L11.9532 67.1319L2.92917 64.3159L2.89938 64.4114ZM11.8883 67.1797L11.8883 71.6277L11.9883 71.6277L11.9883 67.1797L11.8883 67.1797ZM11.9234 71.5799L2.91536 74.3959L2.9452 74.4914L11.9532 71.6754L11.9234 71.5799ZM2.93028 74.3937L0.738277 74.3937L0.738277 74.4937L2.93028 74.4937L2.93028 74.3937ZM0.788277 74.4437L0.788277 71.2437L0.688277 71.2437L0.688277 74.4437L0.788277 74.4437ZM0.738277 71.2937L2.56228 71.2937L2.56228 71.1937L0.738277 71.1937L0.738277 71.2937ZM2.5744 71.2922L2.9584 71.1962L2.93415 71.0992L2.55015 71.1952L2.5744 71.2922ZM2.99628 71.1477L2.99628 67.6597L2.89628 67.6597L2.89628 71.1477L2.99628 71.1477ZM2.9584 67.6112L2.5744 67.5152L2.55015 67.6122L2.93415 67.7082L2.9584 67.6112ZM2.56228 67.5137L0.738277 67.5137L0.738277 67.6137L2.56228 67.6137L2.56228 67.5137ZM9.42479 69.3558L5.52079 68.1718L5.49177 68.2675L9.39577 69.4515L9.42479 69.3558ZM5.45628 68.2197L5.45628 70.5877L5.55628 70.5877L5.55628 68.2197L5.45628 68.2197ZM5.52079 70.6355L9.42479 69.4515L9.39577 69.3558L5.49177 70.5398L5.52079 70.6355Z" fill="black"/>
</svg>
