<svg width="35" height="233" viewBox="0 0 35 233" fill="none" xmlns="http://www.w3.org/2000/svg">
<path opacity="0.5" d="M35 210.191H36.2V209.694L35.8485 209.343L35 210.191ZM35 232.141V233.341H36.2V232.141H35ZM-2.38419e-06 232.141H-1.2V233.341H-2.38419e-06V232.141ZM-2.38419e-06 210.191L-0.84853 209.343L-1.2 209.694V210.191H-2.38419e-06ZM6.65 203.541V202.341H6.15294L5.80147 202.693L6.65 203.541ZM28.35 203.541L29.1985 202.693L28.8471 202.341H28.35V203.541ZM9 222.141H7.8V223.341H9V222.141ZM26 222.141V223.341H27.2V222.141H26ZM26 214.641H27.2V214.144L26.8485 213.793L26 214.641ZM24.9 213.541L25.7485 212.693L25.3971 212.341H24.9V213.541ZM10.1 213.541V212.341H9.60294L9.25147 212.693L10.1 213.541ZM9 214.641L8.15147 213.793L7.8 214.144V214.641H9ZM33.8 210.191V232.141H36.2V210.191H33.8ZM35 230.941H-2.38419e-06V233.341H35V230.941ZM1.2 232.141L1.2 210.191H-1.2L-1.2 232.141H1.2ZM0.848526 211.04L7.49853 204.39L5.80147 202.693L-0.84853 209.343L0.848526 211.04ZM6.65 204.741H28.35V202.341H6.65V204.741ZM27.5015 204.39L34.1515 211.04L35.8485 209.343L29.1985 202.693L27.5015 204.39ZM9 223.341H26V220.941H9V223.341ZM27.2 222.141V214.641H24.8V222.141H27.2ZM26.8485 213.793L25.7485 212.693L24.0515 214.39L25.1515 215.49L26.8485 213.793ZM24.9 212.341H10.1V214.741H24.9V212.341ZM9.25147 212.693L8.15147 213.793L9.84853 215.49L10.9485 214.39L9.25147 212.693ZM7.8 214.641L7.8 222.141H10.2L10.2 214.641H7.8ZM35 172.29H36.2V171.09H35V172.29ZM35 196.79V197.99H36.2V196.79H35ZM-2.38419e-06 196.79H-1.2V197.99H-2.38419e-06V196.79ZM-2.38419e-06 172.59V171.39H-1.2V172.59H-2.38419e-06ZM9 172.59H10.2V171.39H9V172.59ZM9 186.79H7.8V187.99H9V186.79ZM13.85 186.79V187.99H15.05V186.79H13.85ZM13.85 176.29V175.09H12.65V176.29H13.85ZM21.35 176.29H22.55V175.09H21.35V176.29ZM21.35 186.79H20.15V187.99H21.35V186.79ZM26 186.79V187.99H27.2V186.79H26ZM26 172.29V171.09H24.8V172.29H26ZM33.8 172.29L33.8 196.79H36.2L36.2 172.29H33.8ZM35 195.59H-2.38419e-06V197.99H35V195.59ZM1.2 196.79L1.2 172.59H-1.2L-1.2 196.79H1.2ZM-2.38419e-06 173.79H9L9 171.39H-2.38419e-06L-2.38419e-06 173.79ZM7.8 172.59L7.8 186.79H10.2L10.2 172.59H7.8ZM9 187.99H13.85V185.59H9V187.99ZM15.05 186.79V176.29H12.65V186.79H15.05ZM13.85 177.49H21.35V175.09H13.85V177.49ZM20.15 176.29V186.79H22.55V176.29H20.15ZM21.35 187.99H26V185.59H21.35V187.99ZM27.2 186.79V172.29H24.8V186.79H27.2ZM26 173.49H35V171.09H26V173.49ZM35 156.272H36.2V155.072H35V156.272ZM35 166.272V167.472H36.2V166.272H35ZM-2.38419e-06 166.272H-1.2V167.472H-2.38419e-06V166.272ZM-2.38419e-06 143.922L-0.848531 143.074L-1.2 143.425V143.922H-2.38419e-06ZM5.45 138.472V137.272H4.95294L4.60147 137.624L5.45 138.472ZM17 138.472L17.8485 137.624L17.4971 137.272H17V138.472ZM20.55 142.022L19.7015 142.871L20.55 143.719L21.3985 142.871L20.55 142.022ZM24.3 138.272V137.072H23.8029L23.4515 137.424L24.3 138.272ZM35 138.272H36.2V137.072H35V138.272ZM35 148.272V149.472H36.2V148.272H35ZM25.75 148.272V147.072H25.2529L24.9015 147.424L25.75 148.272ZM24.65 149.372L23.8015 148.524L23.45 148.875V149.372H24.65ZM24.65 156.272H23.45V157.472H24.65V156.272ZM15.55 148.472L16.3985 147.624L16.0471 147.272H15.55V148.472ZM8 148.472V147.272H6.8V148.472H8ZM8 156.272H6.8V157.472H8V156.272ZM16.65 156.272V157.472H17.85V156.272H16.65ZM16.65 149.572H17.85V149.075L17.4985 148.724L16.65 149.572ZM33.8 156.272V166.272H36.2V156.272H33.8ZM35 165.072H-2.38419e-06V167.472H35V165.072ZM1.2 166.272V143.922H-1.2L-1.2 166.272H1.2ZM0.848526 144.771L6.29853 139.321L4.60147 137.624L-0.848531 143.074L0.848526 144.771ZM5.45 139.672H17V137.272H5.45V139.672ZM16.1515 139.321L19.7015 142.871L21.3985 141.174L17.8485 137.624L16.1515 139.321ZM21.3985 142.871L25.1485 139.121L23.4515 137.424L19.7015 141.174L21.3985 142.871ZM24.3 139.472H35V137.072H24.3V139.472ZM33.8 138.272V148.272H36.2V138.272H33.8ZM35 147.072H25.75V149.472H35V147.072ZM24.9015 147.424L23.8015 148.524L25.4985 150.221L26.5985 149.121L24.9015 147.424ZM23.45 149.372V156.272H25.85V149.372H23.45ZM24.65 157.472H35V155.072H24.65V157.472ZM15.55 147.272H8V149.672H15.55V147.272ZM6.8 148.472V156.272H9.2V148.472H6.8ZM8 157.472H16.65V155.072H8V157.472ZM17.85 156.272V149.572H15.45V156.272H17.85ZM17.4985 148.724L16.3985 147.624L14.7015 149.321L15.8015 150.421L17.4985 148.724ZM35 107.007H36.2V105.807H35V107.007ZM35 131.507V132.707H36.2V131.507H35ZM-2.38419e-06 131.507H-1.2V132.707H-2.38419e-06V131.507ZM-2.38419e-06 107.307V106.107H-1.2V107.307H-2.38419e-06ZM9 107.307H10.2V106.107H9V107.307ZM9 121.507H7.8V122.707H9V121.507ZM13.85 121.507V122.707H15.05V121.507H13.85ZM13.85 111.007V109.807H12.65V111.007H13.85ZM21.35 111.007H22.55V109.807H21.35V111.007ZM21.35 121.507H20.15V122.707H21.35V121.507ZM26 121.507V122.707H27.2V121.507H26ZM26 107.007V105.807H24.8V107.007H26ZM33.8 107.007L33.8 131.507H36.2L36.2 107.007H33.8ZM35 130.307H-2.38419e-06L-2.38419e-06 132.707H35V130.307ZM1.2 131.507L1.2 107.307H-1.2L-1.2 131.507H1.2ZM-2.38419e-06 108.507H9V106.107H-2.38419e-06V108.507ZM7.8 107.307V121.507H10.2V107.307H7.8ZM9 122.707H13.85V120.307H9V122.707ZM15.05 121.507V111.007H12.65V121.507H15.05ZM13.85 112.207H21.35V109.807H13.85V112.207ZM20.15 111.007V121.507H22.55V111.007H20.15ZM21.35 122.707H26V120.307H21.35V122.707ZM27.2 121.507L27.2 107.007H24.8L24.8 121.507H27.2ZM26 108.207H35V105.807H26V108.207ZM35 79.3891H36.2V78.8921L35.8485 78.5406L35 79.3891ZM35 96.7891L35.8485 97.6377L36.2 97.2862V96.7891H35ZM29.55 102.239V103.439H30.0471L30.3985 103.088L29.55 102.239ZM5.45 102.239L4.60147 103.088L4.95294 103.439H5.45V102.239ZM-2.38419e-06 96.7891H-1.2V97.2862L-0.84853 97.6377L-2.38419e-06 96.7891ZM-2.38419e-06 79.3891L-0.848531 78.5406L-1.2 78.8921V79.3891H-2.38419e-06ZM5.45 73.9391V72.7391H4.95294L4.60147 73.0906L5.45 73.9391ZM13.8 73.9391H15V72.7391H13.8V73.9391ZM13.8 83.9391V85.1391H15V83.9391H13.8ZM9 83.9391V82.7391H7.8V83.9391H9ZM9 92.2391H7.8V93.4391H9V92.2391ZM26 92.2391V93.4391H27.2V92.2391H26ZM26 83.9391H27.2V82.7391H26V83.9391ZM21.2 83.9391H20V85.1391H21.2V83.9391ZM21.2 73.9391V72.7391H20V73.9391H21.2ZM29.55 73.9391L30.3985 73.0906L30.0471 72.7391H29.55V73.9391ZM33.8 79.3891V96.7891H36.2V79.3891H33.8ZM34.1515 95.9406L28.7015 101.391L30.3985 103.088L35.8485 97.6377L34.1515 95.9406ZM29.55 101.039H5.45V103.439H29.55V101.039ZM6.29853 101.391L0.848526 95.9406L-0.84853 97.6377L4.60147 103.088L6.29853 101.391ZM1.2 96.7891L1.2 79.3891H-1.2V96.7891H1.2ZM0.848526 80.2377L6.29853 74.7877L4.60147 73.0906L-0.848531 78.5406L0.848526 80.2377ZM5.45 75.1391H13.8V72.7391H5.45V75.1391ZM12.6 73.9391V83.9391H15V73.9391H12.6ZM13.8 82.7391H9V85.1391H13.8V82.7391ZM7.8 83.9391L7.8 92.2391H10.2L10.2 83.9391H7.8ZM9 93.4391H26V91.0391H9V93.4391ZM27.2 92.2391V83.9391H24.8V92.2391H27.2ZM26 82.7391H21.2V85.1391H26V82.7391ZM22.4 83.9391V73.9391H20V83.9391H22.4ZM21.2 75.1391H29.55V72.7391H21.2V75.1391ZM28.7015 74.7877L34.1515 80.2377L35.8485 78.5406L30.3985 73.0906L28.7015 74.7877ZM35 67.6884V68.8884H36.2V67.6884H35ZM-2.38419e-06 67.6884H-1.2V68.8884H-2.38419e-06V67.6884ZM-2.38419e-06 57.6884V56.4884H-1.2L-1.2 57.6884H-2.38419e-06ZM13.1 57.6884V58.8884H14.3V57.6884H13.1ZM13.1 47.1884H14.3L14.3 45.9884H13.1L13.1 47.1884ZM-2.38419e-06 47.1884H-1.2V48.3884H-2.38419e-06V47.1884ZM-2.38419e-06 37.1884V35.9884H-1.2V37.1884H-2.38419e-06ZM35 37.1884H36.2V35.9884H35V37.1884ZM35 47.1884V48.3884H36.2V47.1884H35ZM21.6 47.1884V45.9884H20.4V47.1884H21.6ZM21.6 57.6884H20.4V58.8884H21.6V57.6884ZM35 57.6884H36.2V56.4884H35V57.6884ZM35 66.4884H-2.38419e-06V68.8884H35V66.4884ZM1.2 67.6884V57.6884H-1.2V67.6884H1.2ZM-2.38419e-06 58.8884H13.1V56.4884H-2.38419e-06V58.8884ZM14.3 57.6884V47.1884H11.9V57.6884H14.3ZM13.1 45.9884H-2.38419e-06L-2.38419e-06 48.3884H13.1L13.1 45.9884ZM1.2 47.1884L1.2 37.1884H-1.2V47.1884H1.2ZM-2.38419e-06 38.3884H35V35.9884H-2.38419e-06V38.3884ZM33.8 37.1884V47.1884H36.2V37.1884H33.8ZM35 45.9884H21.6V48.3884H35V45.9884ZM20.4 47.1884V57.6884H22.8V47.1884H20.4ZM21.6 58.8884H35V56.4884H21.6V58.8884ZM33.8 57.6884V67.6884H36.2V57.6884H33.8ZM35 22.2118H36.2V21.0118H35V22.2118ZM35 32.2118V33.4118H36.2V32.2118H35ZM28.2 32.2118L27.8425 33.3573L28.0171 33.4118H28.2V32.2118ZM-2.38419e-06 23.4118H-1.2V24.2944L-0.35747 24.5573L-2.38419e-06 23.4118ZM-2.38419e-06 9.51179L-0.358048 8.36645L-1.2 8.62965V9.51179H-2.38419e-06ZM28.15 0.71179V-0.48821H27.9668L27.792 -0.43355L28.15 0.71179ZM35 0.71179H36.2V-0.48821H35V0.71179ZM35 10.7118V11.9118H36.2V10.7118H35ZM29.3 10.7118V9.51179H29.1523L29.009 9.54762L29.3 10.7118ZM28.1 11.0118L27.809 9.84762L26.9 10.0749V11.0118H28.1ZM28.1 21.9118H26.9V22.8487L27.809 23.076L28.1 21.9118ZM29.3 22.2118L29.009 23.376L29.1523 23.4118H29.3V22.2118ZM7.9 16.4618L7.55173 15.3134L3.76527 16.4618L7.55173 17.6101L7.9 16.4618ZM20.1 20.1618L19.7517 21.3101L21.3 21.7797V20.1618H20.1ZM20.1 12.7618H21.3V11.1439L19.7517 11.6134L20.1 12.7618ZM33.8 22.2118L33.8 32.2118H36.2L36.2 22.2118H33.8ZM35 31.0118H28.2V33.4118H35V31.0118ZM28.5575 31.0663L0.357465 22.2663L-0.35747 24.5573L27.8425 33.3573L28.5575 31.0663ZM1.2 23.4118V9.51179H-1.2L-1.2 23.4118H1.2ZM0.358043 10.6571L28.508 1.85713L27.792 -0.43355L-0.358048 8.36645L0.358043 10.6571ZM28.15 1.91179H35V-0.48821H28.15V1.91179ZM33.8 0.71179V10.7118H36.2V0.71179H33.8ZM35 9.51179H29.3V11.9118H35V9.51179ZM29.009 9.54762L27.809 9.84762L28.391 12.176L29.591 11.876L29.009 9.54762ZM26.9 11.0118V21.9118H29.3V11.0118H26.9ZM27.809 23.076L29.009 23.376L29.591 21.0476L28.391 20.7476L27.809 23.076ZM29.3 23.4118H35V21.0118H29.3V23.4118ZM7.55173 17.6101L19.7517 21.3101L20.4483 19.0134L8.24827 15.3134L7.55173 17.6101ZM21.3 20.1618V12.7618H18.9V20.1618H21.3ZM19.7517 11.6134L7.55173 15.3134L8.24827 17.6101L20.4483 13.9101L19.7517 11.6134Z" fill="black"/>
</svg>
