<svg width="16" height="87" viewBox="0 0 16 87" fill="none" xmlns="http://www.w3.org/2000/svg">
<path d="M12.1543 86.6224L0.954296 86.6224L0.954296 83.4224L12.1543 83.4224L12.1543 86.6224ZM12.1543 72.7608L12.1543 81.4168H7.8023L4.0423 75.9768H3.7383L3.7383 81.3368L0.954296 81.3368L0.954296 72.8728L5.3063 72.8728L9.0663 78.3128H9.3703L9.3703 72.7608H12.1543ZM12.1543 68.3433V69.5753L10.4103 71.3193L2.6983 71.3193L0.954296 69.5753L0.954296 63.6233L2.6983 61.8793L10.4103 61.8793L12.1543 63.6233L12.1543 64.9833L14.4103 63.2713H15.3543L15.3543 66.0553L12.1543 68.3433ZM3.8343 68.1193L9.2743 68.1193L9.2743 65.0793L3.8343 65.0793L3.8343 68.1193ZM0.954296 53.5562L0.954296 50.3562L10.4103 50.3562L12.1543 52.1002L12.1543 58.0522L10.4103 59.7962L0.954296 59.7962L0.954296 56.5962L9.2743 56.5962L9.2743 53.5562L0.954296 53.5562ZM12.1543 47.8724L0.954296 47.8724L0.954296 44.6724L12.1543 44.6724L12.1543 47.8724ZM12.1543 34.2668L12.1543 42.1068L0.954296 42.1068L0.954296 34.3628H3.8343L3.8343 38.9068H5.3863L5.3863 35.5468H7.7863L7.7863 38.9068H9.2743L9.2743 34.2668L12.1543 34.2668ZM12.1543 29.1412L12.1543 32.3412L0.954296 32.3412L0.954296 25.1892L2.6983 23.4452H6.3943L7.5303 24.5812L8.7303 23.3812L12.1543 23.3812L12.1543 26.5812L9.1943 26.5812L8.8423 26.9332L8.8423 29.1412L12.1543 29.1412ZM5.9303 26.6452H3.5143L3.5143 29.1412H6.2823L6.2823 26.9972L5.9303 26.6452ZM12.1543 14.1922L12.1543 21.2162L0.954296 21.2162L0.954296 14.1922L3.0823 12.0642L10.0263 12.0642L12.1543 14.1922ZM3.8343 18.0162H9.2743L9.2743 15.6162L8.9223 15.2642H4.1863L3.8343 15.6162L3.8343 18.0162ZM12.1543 7.66366L12.1543 10.8637H9.9783L0.954296 8.04766L0.954296 3.59966L9.9623 0.783662H12.1543L12.1543 3.98366H10.3303L9.9463 4.07966L9.9463 7.56766L10.3303 7.66366H12.1543ZM3.4823 5.82366L7.3863 7.00766L7.3863 4.63966L3.4823 5.82366Z" fill="black"/>
<path d="M12.1543 86.6224V86.6724H12.2043V86.6224H12.1543ZM0.954296 86.6224H0.904296V86.6724H0.954296V86.6224ZM0.954296 83.4224V83.3724H0.904296V83.4224H0.954296ZM12.1543 83.4224H12.2043V83.3724H12.1543V83.4224ZM12.1543 86.5724L0.954296 86.5724L0.954296 86.6724L12.1543 86.6724V86.5724ZM1.0043 86.6224L1.0043 83.4224H0.904296L0.904296 86.6224H1.0043ZM0.954296 83.4724L12.1543 83.4724L12.1543 83.3724L0.954296 83.3724V83.4724ZM12.1043 83.4224L12.1043 86.6224H12.2043L12.2043 83.4224H12.1043ZM12.1543 72.7608H12.2043V72.7108H12.1543V72.7608ZM12.1543 81.4168V81.4668H12.2043V81.4168H12.1543ZM7.8023 81.4168L7.76117 81.4452L7.77607 81.4668H7.8023V81.4168ZM4.0423 75.9768L4.08343 75.9484L4.06852 75.9268H4.0423V75.9768ZM3.7383 75.9768V75.9268H3.6883V75.9768H3.7383ZM3.7383 81.3368V81.3868H3.7883V81.3368H3.7383ZM0.954296 81.3368H0.904296V81.3868H0.954296V81.3368ZM0.954296 72.8728V72.8228H0.904296V72.8728H0.954296ZM5.3063 72.8728L5.34743 72.8444L5.33252 72.8228H5.3063L5.3063 72.8728ZM9.0663 78.3128L9.02517 78.3412L9.04007 78.3628H9.0663V78.3128ZM9.3703 78.3128V78.3628H9.4203V78.3128H9.3703ZM9.3703 72.7608V72.7108H9.3203V72.7608H9.3703ZM12.1043 72.7608L12.1043 81.4168H12.2043L12.2043 72.7608H12.1043ZM12.1543 81.3668H7.8023V81.4668H12.1543V81.3668ZM7.84343 81.3884L4.08343 75.9484L4.00117 76.0052L7.76117 81.4452L7.84343 81.3884ZM4.0423 75.9268H3.7383V76.0268H4.0423V75.9268ZM3.6883 75.9768L3.6883 81.3368H3.7883L3.7883 75.9768H3.6883ZM3.7383 81.2868L0.954296 81.2868V81.3868L3.7383 81.3868L3.7383 81.2868ZM1.0043 81.3368L1.0043 72.8728H0.904296L0.904296 81.3368H1.0043ZM0.954296 72.9228L5.3063 72.9228L5.3063 72.8228L0.954296 72.8228V72.9228ZM5.26516 72.9012L9.02517 78.3412L9.10743 78.2844L5.34743 72.8444L5.26516 72.9012ZM9.0663 78.3628H9.3703V78.2628H9.0663V78.3628ZM9.4203 78.3128L9.4203 72.7608H9.3203L9.3203 78.3128H9.4203ZM9.3703 72.8108H12.1543V72.7108H9.3703V72.8108ZM12.1543 68.3433L12.1252 68.3026L12.1043 68.3176V68.3433H12.1543ZM12.1543 69.5753L12.1897 69.6106L12.2043 69.596V69.5753H12.1543ZM10.4103 71.3193V71.3693H10.431L10.4457 71.3546L10.4103 71.3193ZM2.6983 71.3193L2.66294 71.3546L2.67759 71.3693H2.6983L2.6983 71.3193ZM0.954296 69.5753H0.904296V69.596L0.918941 69.6106L0.954296 69.5753ZM0.954296 63.6233L0.918941 63.5879L0.904296 63.6026V63.6233H0.954296ZM2.6983 61.8793V61.8293H2.67759L2.66294 61.8439L2.6983 61.8793ZM10.4103 61.8793L10.4457 61.8439L10.431 61.8293H10.4103V61.8793ZM12.1543 63.6233H12.2043V63.6026L12.1897 63.5879L12.1543 63.6233ZM12.1543 64.9833H12.1043V65.084L12.1845 65.0231L12.1543 64.9833ZM14.4103 63.2713V63.2213H14.3935L14.3801 63.2315L14.4103 63.2713ZM15.3543 63.2713H15.4043V63.2213H15.3543V63.2713ZM15.3543 66.0553L15.3834 66.096L15.4043 66.081V66.0553H15.3543ZM3.8343 68.1193H3.7843V68.1693H3.8343V68.1193ZM9.2743 68.1193V68.1693H9.3243V68.1193H9.2743ZM9.2743 65.0793H9.3243V65.0293H9.2743V65.0793ZM3.8343 65.0793V65.0293H3.7843V65.0793H3.8343ZM12.1043 68.3433V69.5753H12.2043V68.3433H12.1043ZM12.1189 69.5399L10.3749 71.2839L10.4457 71.3546L12.1897 69.6106L12.1189 69.5399ZM10.4103 71.2693L2.6983 71.2693L2.6983 71.3693L10.4103 71.3693V71.2693ZM2.73365 71.2839L0.989651 69.5399L0.918941 69.6106L2.66294 71.3546L2.73365 71.2839ZM1.0043 69.5753L1.0043 63.6233H0.904296L0.904296 69.5753H1.0043ZM0.989651 63.6586L2.73365 61.9146L2.66294 61.8439L0.918941 63.5879L0.989651 63.6586ZM2.6983 61.9293L10.4103 61.9293V61.8293L2.6983 61.8293V61.9293ZM10.3749 61.9146L12.1189 63.6586L12.1897 63.5879L10.4457 61.8439L10.3749 61.9146ZM12.1043 63.6233L12.1043 64.9833H12.2043L12.2043 63.6233H12.1043ZM12.1845 65.0231L14.4405 63.3111L14.3801 63.2315L12.1241 64.9435L12.1845 65.0231ZM14.4103 63.3213H15.3543V63.2213H14.4103V63.3213ZM15.3043 63.2713L15.3043 66.0553H15.4043L15.4043 63.2713H15.3043ZM15.3252 66.0146L12.1252 68.3026L12.1834 68.384L15.3834 66.096L15.3252 66.0146ZM3.8343 68.1693L9.2743 68.1693V68.0693L3.8343 68.0693V68.1693ZM9.3243 68.1193L9.3243 65.0793H9.2243L9.2243 68.1193H9.3243ZM9.2743 65.0293L3.8343 65.0293V65.1293L9.2743 65.1293V65.0293ZM3.7843 65.0793L3.7843 68.1193H3.8843L3.8843 65.0793H3.7843ZM0.954296 53.5562H0.904296V53.6062H0.954296V53.5562ZM0.954296 50.3562V50.3062H0.904296V50.3562H0.954296ZM10.4103 50.3562L10.4457 50.3208L10.431 50.3062H10.4103V50.3562ZM12.1543 52.1002H12.2043V52.0795L12.1897 52.0648L12.1543 52.1002ZM12.1543 58.0522L12.1897 58.0875L12.2043 58.0729V58.0522H12.1543ZM10.4103 59.7962V59.8462H10.431L10.4457 59.8315L10.4103 59.7962ZM0.954296 59.7962H0.904296V59.8462H0.954296V59.7962ZM0.954296 56.5962V56.5462H0.904296V56.5962H0.954296ZM9.2743 56.5962V56.6462H9.3243V56.5962H9.2743ZM9.2743 53.5562H9.3243V53.5062H9.2743V53.5562ZM1.0043 53.5562L1.0043 50.3562H0.904296L0.904296 53.5562H1.0043ZM0.954296 50.4062L10.4103 50.4062V50.3062L0.954296 50.3062V50.4062ZM10.3749 50.3915L12.1189 52.1355L12.1897 52.0648L10.4457 50.3208L10.3749 50.3915ZM12.1043 52.1002L12.1043 58.0522H12.2043L12.2043 52.1002H12.1043ZM12.1189 58.0168L10.3749 59.7608L10.4457 59.8315L12.1897 58.0875L12.1189 58.0168ZM10.4103 59.7462L0.954296 59.7462V59.8462L10.4103 59.8462V59.7462ZM1.0043 59.7962L1.0043 56.5962H0.904296L0.904296 59.7962H1.0043ZM0.954296 56.6462L9.2743 56.6462V56.5462L0.954296 56.5462V56.6462ZM9.3243 56.5962L9.3243 53.5562H9.2243L9.2243 56.5962H9.3243ZM9.2743 53.5062L0.954296 53.5062L0.954296 53.6062L9.2743 53.6062V53.5062ZM12.1543 47.8724V47.9224H12.2043V47.8724H12.1543ZM0.954296 47.8724H0.904296V47.9224H0.954296V47.8724ZM0.954296 44.6724L0.954296 44.6224H0.904296L0.904296 44.6724H0.954296ZM12.1543 44.6724H12.2043V44.6224H12.1543V44.6724ZM12.1543 47.8224L0.954296 47.8224V47.9224L12.1543 47.9224L12.1543 47.8224ZM1.0043 47.8724L1.0043 44.6724H0.904296L0.904296 47.8724H1.0043ZM0.954296 44.7224L12.1543 44.7224V44.6224L0.954296 44.6224L0.954296 44.7224ZM12.1043 44.6724L12.1043 47.8724H12.2043L12.2043 44.6724H12.1043ZM12.1543 34.2668H12.2043L12.2043 34.2168H12.1543L12.1543 34.2668ZM12.1543 42.1068V42.1568H12.2043V42.1068H12.1543ZM0.954296 42.1068H0.904296V42.1568H0.954296V42.1068ZM0.954296 34.3628V34.3128H0.904296V34.3628H0.954296ZM3.8343 34.3628H3.8843V34.3128H3.8343V34.3628ZM3.8343 38.9068H3.7843L3.7843 38.9568H3.8343L3.8343 38.9068ZM5.3863 38.9068L5.3863 38.9568H5.4363L5.4363 38.9068H5.3863ZM5.3863 35.5468L5.3863 35.4968H5.3363L5.3363 35.5468H5.3863ZM7.7863 35.5468H7.8363L7.8363 35.4968H7.7863L7.7863 35.5468ZM7.7863 38.9068H7.7363L7.7363 38.9568H7.7863L7.7863 38.9068ZM9.2743 38.9068L9.2743 38.9568L9.3243 38.9568L9.3243 38.9068L9.2743 38.9068ZM9.2743 34.2668V34.2168H9.2243V34.2668H9.2743ZM12.1043 34.2668L12.1043 42.1068H12.2043L12.2043 34.2668H12.1043ZM12.1543 42.0568L0.954296 42.0568L0.954296 42.1568L12.1543 42.1568V42.0568ZM1.0043 42.1068L1.0043 34.3628H0.904296L0.904296 42.1068H1.0043ZM0.954296 34.4128H3.8343V34.3128H0.954296V34.4128ZM3.7843 34.3628L3.7843 38.9068H3.8843L3.8843 34.3628H3.7843ZM3.8343 38.9568H5.3863L5.3863 38.8568H3.8343L3.8343 38.9568ZM5.4363 38.9068L5.4363 35.5468H5.3363L5.3363 38.9068H5.4363ZM5.3863 35.5968H7.7863L7.7863 35.4968H5.3863L5.3863 35.5968ZM7.7363 35.5468L7.7363 38.9068H7.8363L7.8363 35.5468H7.7363ZM7.7863 38.9568H9.2743L9.2743 38.8568H7.7863L7.7863 38.9568ZM9.3243 38.9068L9.3243 34.2668L9.2243 34.2668L9.2243 38.9068L9.3243 38.9068ZM9.2743 34.3168L12.1543 34.3168L12.1543 34.2168L9.2743 34.2168V34.3168ZM12.1543 29.1412H12.2043V29.0912H12.1543V29.1412ZM12.1543 32.3412V32.3912H12.2043V32.3412H12.1543ZM0.954296 32.3412H0.904296L0.904296 32.3912H0.954296L0.954296 32.3412ZM0.954296 25.1892L0.918941 25.1538L0.904296 25.1685V25.1892H0.954296ZM2.6983 23.4452V23.3952H2.67759L2.66294 23.4098L2.6983 23.4452ZM6.3943 23.4452L6.42965 23.4098L6.41501 23.3952H6.3943V23.4452ZM7.5303 24.5812L7.49494 24.6165L7.5303 24.6519L7.56565 24.6165L7.5303 24.5812ZM8.7303 23.3812V23.3312H8.70959L8.69494 23.3458L8.7303 23.3812ZM12.1543 23.3812H12.2043V23.3312H12.1543V23.3812ZM12.1543 26.5812V26.6312H12.2043V26.5812H12.1543ZM9.1943 26.5812V26.5312H9.17359L9.15894 26.5458L9.1943 26.5812ZM8.8423 26.9332L8.80694 26.8978L8.7923 26.9125V26.9332H8.8423ZM8.8423 29.1412H8.7923V29.1912H8.8423V29.1412ZM5.9303 26.6452L5.96565 26.6098L5.95101 26.5952H5.9303V26.6452ZM3.5143 26.6452V26.5952H3.4643V26.6452H3.5143ZM3.5143 29.1412H3.4643V29.1912H3.5143V29.1412ZM6.2823 29.1412V29.1912H6.3323V29.1412H6.2823ZM6.2823 26.9972H6.3323V26.9765L6.31765 26.9618L6.2823 26.9972ZM12.1043 29.1412L12.1043 32.3412H12.2043L12.2043 29.1412H12.1043ZM12.1543 32.2912L0.954296 32.2912L0.954296 32.3912L12.1543 32.3912V32.2912ZM1.0043 32.3412L1.0043 25.1892H0.904296L0.904296 32.3412H1.0043ZM0.989651 25.2245L2.73365 23.4805L2.66294 23.4098L0.918941 25.1538L0.989651 25.2245ZM2.6983 23.4952H6.3943V23.3952H2.6983L2.6983 23.4952ZM6.35894 23.4805L7.49494 24.6165L7.56565 24.5458L6.42965 23.4098L6.35894 23.4805ZM7.56565 24.6165L8.76565 23.4165L8.69494 23.3458L7.49494 24.5458L7.56565 24.6165ZM8.7303 23.4312L12.1543 23.4312V23.3312L8.7303 23.3312V23.4312ZM12.1043 23.3812L12.1043 26.5812H12.2043L12.2043 23.3812H12.1043ZM12.1543 26.5312L9.1943 26.5312V26.6312L12.1543 26.6312V26.5312ZM9.15894 26.5458L8.80694 26.8978L8.87765 26.9685L9.22965 26.6165L9.15894 26.5458ZM8.7923 26.9332L8.7923 29.1412H8.8923L8.8923 26.9332H8.7923ZM8.8423 29.1912L12.1543 29.1912L12.1543 29.0912L8.8423 29.0912V29.1912ZM5.9303 26.5952H3.5143V26.6952H5.9303V26.5952ZM3.4643 26.6452L3.4643 29.1412H3.5643L3.5643 26.6452H3.4643ZM3.5143 29.1912H6.2823V29.0912H3.5143V29.1912ZM6.3323 29.1412L6.3323 26.9972H6.2323L6.2323 29.1412H6.3323ZM6.31765 26.9618L5.96565 26.6098L5.89494 26.6805L6.24694 27.0325L6.31765 26.9618ZM12.1543 14.1922H12.2043V14.1715L12.1897 14.1568L12.1543 14.1922ZM12.1543 21.2162V21.2662H12.2043V21.2162H12.1543ZM0.954296 21.2162H0.904296V21.2662H0.954296V21.2162ZM0.954296 14.1922L0.918941 14.1568L0.904296 14.1715V14.1922H0.954296ZM3.0823 12.0642V12.0142H3.06159L3.04694 12.0288L3.0823 12.0642ZM10.0263 12.0642L10.0617 12.0288L10.047 12.0142H10.0263V12.0642ZM3.8343 18.0162H3.7843V18.0662H3.8343V18.0162ZM9.2743 18.0162V18.0662L9.3243 18.0662V18.0162L9.2743 18.0162ZM9.2743 15.6162L9.3243 15.6162V15.5955L9.30965 15.5808L9.2743 15.6162ZM8.9223 15.2642L8.95765 15.2288L8.94301 15.2142H8.9223V15.2642ZM4.1863 15.2642V15.2142H4.16559L4.15094 15.2288L4.1863 15.2642ZM3.8343 15.6162L3.79894 15.5808L3.7843 15.5955V15.6162H3.8343ZM12.1043 14.1922L12.1043 21.2162H12.2043L12.2043 14.1922H12.1043ZM12.1543 21.1662L0.954296 21.1662V21.2662L12.1543 21.2662V21.1662ZM1.0043 21.2162L1.0043 14.1922H0.904296L0.904296 21.2162H1.0043ZM0.989651 14.2275L3.11765 12.0995L3.04694 12.0288L0.918941 14.1568L0.989651 14.2275ZM3.0823 12.1142L10.0263 12.1142V12.0142L3.0823 12.0142V12.1142ZM9.99094 12.0995L12.1189 14.2275L12.1897 14.1568L10.0617 12.0288L9.99094 12.0995ZM3.8343 18.0662H9.2743V17.9662H3.8343V18.0662ZM9.3243 18.0162L9.3243 15.6162L9.2243 15.6162L9.2243 18.0162L9.3243 18.0162ZM9.30965 15.5808L8.95765 15.2288L8.88694 15.2995L9.23894 15.6515L9.30965 15.5808ZM8.9223 15.2142H4.1863V15.3142H8.9223V15.2142ZM4.15094 15.2288L3.79894 15.5808L3.86965 15.6515L4.22165 15.2995L4.15094 15.2288ZM3.7843 15.6162L3.7843 18.0162H3.8843L3.8843 15.6162H3.7843ZM12.1543 7.66366H12.2043V7.61366H12.1543V7.66366ZM12.1543 10.8637V10.9137H12.2043V10.8637H12.1543ZM9.9783 10.8637L9.9634 10.9114L9.97068 10.9137H9.9783V10.8637ZM0.954296 8.04766H0.904296V8.08444L0.939402 8.09539L0.954296 8.04766ZM0.954296 3.59966L0.939378 3.55194L0.904296 3.56291V3.59966H0.954296ZM9.9623 0.783662L9.9623 0.733662H9.95466L9.94738 0.735939L9.9623 0.783662ZM12.1543 0.783662H12.2043V0.733662H12.1543V0.783662ZM12.1543 3.98366V4.03366H12.2043V3.98366H12.1543ZM10.3303 3.98366V3.93212L10.3182 3.93515L10.3303 3.98366ZM9.9463 4.07966L9.93417 4.03115L9.8963 4.04062V4.07966H9.9463ZM9.9463 7.56766H9.8963V7.6067L9.93417 7.61617L9.9463 7.56766ZM10.3303 7.66366L10.3178 7.71366H10.3303V7.66366ZM3.4823 5.82366L3.46778 5.77581L3.31002 5.82366L3.46778 5.87151L3.4823 5.82366ZM7.3863 7.00766L7.37179 7.05551L7.4363 7.07508V7.00766H7.3863ZM7.3863 4.63966H7.4363V4.57225L7.37179 4.59181L7.3863 4.63966ZM12.1043 7.66366L12.1043 10.8637H12.2043L12.2043 7.66366H12.1043ZM12.1543 10.8137H9.9783V10.9137H12.1543V10.8137ZM9.99319 10.8159L0.969191 7.99993L0.939402 8.09539L9.9634 10.9114L9.99319 10.8159ZM1.0043 8.04766L1.0043 3.59966H0.904296L0.904296 8.04766H1.0043ZM0.969215 3.64738L9.97722 0.831384L9.94738 0.735939L0.939378 3.55194L0.969215 3.64738ZM9.9623 0.833662H12.1543V0.733662H9.9623L9.9623 0.833662ZM12.1043 0.783662L12.1043 3.98366H12.2043L12.2043 0.783662H12.1043ZM12.1543 3.93366H10.3303V4.03366H12.1543V3.93366ZM10.3182 3.93515L9.93417 4.03115L9.95842 4.12817L10.3424 4.03217L10.3182 3.93515ZM9.8963 4.07966L9.8963 7.56766H9.9963L9.9963 4.07966H9.8963ZM9.93417 7.61617L10.3182 7.71217L10.3424 7.61516L9.95842 7.51916L9.93417 7.61617ZM10.3303 7.71366H12.1543V7.61366H10.3303V7.71366ZM3.46778 5.87151L7.37179 7.05551L7.40081 6.95981L3.49681 5.77581L3.46778 5.87151ZM7.4363 7.00766L7.4363 4.63966H7.3363L7.3363 7.00766H7.4363ZM7.37179 4.59181L3.46778 5.77581L3.49681 5.87151L7.40081 4.68751L7.37179 4.59181Z" fill="black"/>
</svg>
