<svg width="46" height="270" viewBox="0 0 46 270" fill="none" xmlns="http://www.w3.org/2000/svg">
<path opacity="0.5" d="M35.1543 269.045V270.345H36.4543V269.045H35.1543ZM0.154294 269.045H-1.14571L-1.14571 270.345H0.154294V269.045ZM0.154294 259.045L0.154294 257.745H-1.14571L-1.14571 259.045H0.154294ZM35.1543 259.045H36.4543L36.4543 257.745H35.1543L35.1543 259.045ZM35.1543 267.745L0.154294 267.745L0.154294 270.345L35.1543 270.345L35.1543 267.745ZM1.45429 269.045L1.45429 259.045H-1.14571L-1.14571 269.045H1.45429ZM0.154294 260.345L35.1543 260.345L35.1543 257.745L0.154294 257.745L0.154294 260.345ZM33.8543 259.045L33.8543 269.045H36.4543L36.4543 259.045H33.8543ZM35.1543 225.727H36.4543V224.427H35.1543V225.727ZM35.1543 252.777V254.077H36.4543V252.777H35.1543ZM21.5543 252.777L20.4849 253.516L20.8725 254.077H21.5543V252.777ZM9.8043 235.777L10.8737 235.038L10.4861 234.477H9.8043L9.8043 235.777ZM8.8543 235.777L8.8543 234.477H7.5543L7.5543 235.777H8.8543ZM8.8543 252.527L8.8543 253.827H10.1543L10.1543 252.527H8.8543ZM0.154294 252.527H-1.14571L-1.14571 253.827H0.154294L0.154294 252.527ZM0.154294 226.077L0.154294 224.777H-1.14571L-1.14571 226.077H0.154294ZM13.7543 226.077L14.8237 225.338L14.4361 224.777H13.7543L13.7543 226.077ZM25.5043 243.077L24.4349 243.816L24.8225 244.377H25.5043V243.077ZM26.4543 243.077V244.377H27.7543V243.077H26.4543ZM26.4543 225.727V224.427H25.1543V225.727H26.4543ZM33.8543 225.727L33.8543 252.777H36.4543L36.4543 225.727H33.8543ZM35.1543 251.477L21.5543 251.477V254.077L35.1543 254.077V251.477ZM22.6237 252.038L10.8737 235.038L8.73488 236.516L20.4849 253.516L22.6237 252.038ZM9.8043 234.477L8.8543 234.477L8.8543 237.077L9.8043 237.077L9.8043 234.477ZM7.5543 235.777L7.5543 252.527H10.1543L10.1543 235.777L7.5543 235.777ZM8.8543 251.227H0.154294L0.154294 253.827H8.8543L8.8543 251.227ZM1.45429 252.527L1.45429 226.077H-1.14571L-1.14571 252.527H1.45429ZM0.154294 227.377L13.7543 227.377L13.7543 224.777L0.154294 224.777L0.154294 227.377ZM12.6849 226.816L24.4349 243.816L26.5737 242.338L14.8237 225.338L12.6849 226.816ZM25.5043 244.377H26.4543V241.777H25.5043V244.377ZM27.7543 243.077L27.7543 225.727H25.1543L25.1543 243.077H27.7543ZM26.4543 227.027L35.1543 227.027V224.427L26.4543 224.427V227.027ZM35.1543 211.923L34.3982 210.865L33.8543 211.254V211.923L35.1543 211.923ZM35.1543 215.773L36.0735 216.692L36.4543 216.311V215.773H35.1543ZM29.7043 221.223V222.523H30.2428L30.6235 222.142L29.7043 221.223ZM5.6043 221.223L4.68506 222.142L5.06582 222.523H5.6043L5.6043 221.223ZM0.154294 215.773H-1.14571L-1.14571 216.311L-0.764944 216.692L0.154294 215.773ZM0.154294 197.173L-0.764944 196.253L-1.14571 196.634V197.173H0.154294ZM5.6043 191.723L5.6043 190.423H5.06582L4.68506 190.803L5.6043 191.723ZM29.7043 191.723L30.6235 190.803L30.2428 190.423H29.7043V191.723ZM35.1543 197.173H36.4543L36.4543 196.634L36.0735 196.253L35.1543 197.173ZM35.1543 201.423L33.8543 201.423L33.8543 204.041L35.9402 202.458L35.1543 201.423ZM42.2043 196.073V194.773H41.7669L41.4184 195.037L42.2043 196.073ZM45.1543 196.073H46.4543V194.773H45.1543V196.073ZM45.1543 204.773L45.9104 205.83L46.4543 205.441V204.773H45.1543ZM9.15429 211.223H7.85429L7.85429 212.523H9.15429L9.15429 211.223ZM26.1543 211.223V212.523H27.4543V211.223H26.1543ZM26.1543 201.723H27.4543V200.423H26.1543V201.723ZM9.15429 201.723L9.15429 200.423H7.85429L7.85429 201.723H9.15429ZM33.8543 211.923L33.8543 215.773L36.4543 215.773L36.4543 211.923L33.8543 211.923ZM34.2351 214.853L28.7851 220.303L30.6235 222.142L36.0735 216.692L34.2351 214.853ZM29.7043 219.923L5.6043 219.923L5.6043 222.523L29.7043 222.523L29.7043 219.923ZM6.52353 220.303L1.07353 214.853L-0.764944 216.692L4.68506 222.142L6.52353 220.303ZM1.45429 215.773L1.45429 197.173H-1.14571L-1.14571 215.773H1.45429ZM1.07353 198.092L6.52353 192.642L4.68506 190.803L-0.764944 196.253L1.07353 198.092ZM5.6043 193.023L29.7043 193.023V190.423L5.6043 190.423L5.6043 193.023ZM28.7851 192.642L34.2351 198.092L36.0735 196.253L30.6235 190.803L28.7851 192.642ZM33.8543 197.173L33.8543 201.423L36.4543 201.423L36.4543 197.173L33.8543 197.173ZM35.9402 202.458L42.9902 197.108L41.4184 195.037L34.3684 200.387L35.9402 202.458ZM42.2043 197.373L45.1543 197.373L45.1543 194.773L42.2043 194.773L42.2043 197.373ZM43.8543 196.073L43.8543 204.773L46.4543 204.773L46.4543 196.073L43.8543 196.073ZM44.3982 203.715L34.3982 210.865L35.9104 212.98L45.9104 205.83L44.3982 203.715ZM9.15429 212.523H26.1543L26.1543 209.923H9.15429L9.15429 212.523ZM27.4543 211.223L27.4543 201.723H24.8543L24.8543 211.223H27.4543ZM26.1543 200.423H9.15429L9.15429 203.023H26.1543V200.423ZM7.85429 201.723L7.85429 211.223H10.4543L10.4543 201.723H7.85429ZM0.154294 165.713H-1.14571L-1.14571 167.013H0.154294V165.713ZM0.154294 155.713L0.154294 154.413H-1.14571L-1.14571 155.713H0.154294ZM29.7043 155.713L30.6235 154.794L30.2428 154.413H29.7043V155.713ZM35.1543 161.163H36.4543V160.624L36.0735 160.244L35.1543 161.163ZM35.1543 179.763L36.0735 180.682L36.4543 180.301L36.4543 179.763H35.1543ZM29.7043 185.213V186.513H30.2428L30.6235 186.132L29.7043 185.213ZM0.154294 185.213H-1.14571L-1.14571 186.513H0.154294L0.154294 185.213ZM0.154294 175.213L0.154294 173.913H-1.14571L-1.14571 175.213H0.154294ZM26.1543 175.213V176.513H27.4543V175.213H26.1543ZM26.1543 165.713H27.4543V164.413H26.1543V165.713ZM1.45429 165.713L1.45429 155.713H-1.14571L-1.14571 165.713H1.45429ZM0.154294 157.013L29.7043 157.013L29.7043 154.413L0.154294 154.413L0.154294 157.013ZM28.7851 156.632L34.2351 162.082L36.0735 160.244L30.6235 154.794L28.7851 156.632ZM33.8543 161.163L33.8543 179.763L36.4543 179.763L36.4543 161.163L33.8543 161.163ZM34.2351 178.844L28.7851 184.294L30.6235 186.132L36.0735 180.682L34.2351 178.844ZM29.7043 183.913L0.154294 183.913L0.154294 186.513L29.7043 186.513V183.913ZM1.45429 185.213L1.45429 175.213H-1.14571L-1.14571 185.213H1.45429ZM0.154294 176.513L26.1543 176.513V173.913L0.154294 173.913L0.154294 176.513ZM27.4543 175.213L27.4543 165.713H24.8543L24.8543 175.213H27.4543ZM26.1543 164.413L0.154294 164.413L0.154294 167.013L26.1543 167.013L26.1543 164.413ZM35.1543 147.951V149.251H36.4543V147.951H35.1543ZM0.154294 147.951H-1.14571L-1.14571 149.251H0.154294L0.154294 147.951ZM0.154294 137.951L0.154294 136.651H-1.14571L-1.14571 137.951H0.154294ZM35.1543 137.951H36.4543V136.651H35.1543V137.951ZM35.1543 146.651L0.154294 146.651L0.154294 149.251L35.1543 149.251V146.651ZM1.45429 147.951L1.45429 137.951H-1.14571L-1.14571 147.951H1.45429ZM0.154294 139.251L35.1543 139.251V136.651L0.154294 136.651L0.154294 139.251ZM33.8543 137.951L33.8543 147.951H36.4543L36.4543 137.951H33.8543ZM35.1543 105.433H36.4543L36.4543 104.133H35.1543L35.1543 105.433ZM35.1543 129.933V131.233H36.4543V129.933H35.1543ZM0.154294 129.933H-1.14571L-1.14571 131.233H0.154294L0.154294 129.933ZM0.154294 105.733L0.154294 104.433H-1.14571L-1.14571 105.733H0.154294ZM9.15429 105.733H10.4543L10.4543 104.433H9.15429L9.15429 105.733ZM9.15429 119.933H7.85429V121.233H9.15429V119.933ZM14.0043 119.933V121.233H15.3043V119.933H14.0043ZM14.0043 109.433V108.133H12.7043V109.433H14.0043ZM21.5043 109.433H22.8043L22.8043 108.133H21.5043L21.5043 109.433ZM21.5043 119.933H20.2043V121.233H21.5043V119.933ZM26.1543 119.933V121.233H27.4543V119.933H26.1543ZM26.1543 105.433L26.1543 104.133H24.8543L24.8543 105.433H26.1543ZM33.8543 105.433L33.8543 129.933H36.4543L36.4543 105.433H33.8543ZM35.1543 128.633L0.154294 128.633L0.154294 131.233L35.1543 131.233L35.1543 128.633ZM1.45429 129.933L1.45429 105.733H-1.14571L-1.14571 129.933H1.45429ZM0.154294 107.033H9.15429L9.15429 104.433H0.154294L0.154294 107.033ZM7.85429 105.733L7.85429 119.933H10.4543L10.4543 105.733H7.85429ZM9.15429 121.233L14.0043 121.233L14.0043 118.633L9.15429 118.633L9.15429 121.233ZM15.3043 119.933L15.3043 109.433H12.7043L12.7043 119.933H15.3043ZM14.0043 110.733H21.5043L21.5043 108.133H14.0043L14.0043 110.733ZM20.2043 109.433L20.2043 119.933H22.8043L22.8043 109.433H20.2043ZM21.5043 121.233H26.1543L26.1543 118.633H21.5043L21.5043 121.233ZM27.4543 119.933L27.4543 105.433H24.8543L24.8543 119.933H27.4543ZM26.1543 106.733L35.1543 106.733L35.1543 104.133L26.1543 104.133L26.1543 106.733ZM35.1543 89.4159H36.4543L36.4543 88.1159H35.1543L35.1543 89.4159ZM35.1543 99.4159V100.716H36.4543V99.4159H35.1543ZM0.154294 99.4159H-1.14571L-1.14571 100.716H0.154294L0.154294 99.4159ZM0.154294 77.0659L-0.764944 76.1467L-1.14571 76.5274L-1.14571 77.0659H0.154294ZM5.6043 71.6159L5.6043 70.3159H5.06582L4.68506 70.6967L5.6043 71.6159ZM17.1543 71.6159L18.0735 70.6967L17.6928 70.3159H17.1543L17.1543 71.6159ZM20.7043 75.1659L19.7851 76.0851L20.7043 77.0044L21.6235 76.0851L20.7043 75.1659ZM24.4543 71.4159V70.1159H23.9158L23.5351 70.4967L24.4543 71.4159ZM35.1543 71.4159H36.4543V70.1159H35.1543V71.4159ZM35.1543 81.4159L35.1543 82.7159H36.4543L36.4543 81.4159H35.1543ZM25.9043 81.4159V80.1159H25.3658L24.9851 80.4967L25.9043 81.4159ZM24.8043 82.5159L23.8851 81.5967L23.5043 81.9774V82.5159H24.8043ZM24.8043 89.4159H23.5043V90.7159H24.8043V89.4159ZM15.7043 81.6159L16.6235 80.6967L16.2428 80.3159H15.7043V81.6159ZM8.1543 81.6159L8.1543 80.3159H6.8543L6.8543 81.6159H8.1543ZM8.1543 89.4159H6.8543V90.7159H8.1543V89.4159ZM16.8043 89.4159V90.7159H18.1043V89.4159H16.8043ZM16.8043 82.7159H18.1043V82.1774L17.7235 81.7967L16.8043 82.7159ZM33.8543 89.4159L33.8543 99.4159H36.4543L36.4543 89.4159H33.8543ZM35.1543 98.1159L0.154294 98.1159L0.154294 100.716L35.1543 100.716L35.1543 98.1159ZM1.45429 99.4159L1.45429 77.0659H-1.14571L-1.14571 99.4159H1.45429ZM1.07353 77.9851L6.52353 72.5351L4.68506 70.6967L-0.764944 76.1467L1.07353 77.9851ZM5.6043 72.9159L17.1543 72.9159L17.1543 70.3159L5.6043 70.3159L5.6043 72.9159ZM16.2351 72.5351L19.7851 76.0851L21.6235 74.2467L18.0735 70.6967L16.2351 72.5351ZM21.6235 76.0851L25.3735 72.3351L23.5351 70.4967L19.7851 74.2467L21.6235 76.0851ZM24.4543 72.7159L35.1543 72.7159L35.1543 70.1159L24.4543 70.1159L24.4543 72.7159ZM33.8543 71.4159L33.8543 81.4159H36.4543L36.4543 71.4159H33.8543ZM35.1543 80.1159L25.9043 80.1159L25.9043 82.7159L35.1543 82.7159L35.1543 80.1159ZM24.9851 80.4967L23.8851 81.5967L25.7235 83.4351L26.8235 82.3351L24.9851 80.4967ZM23.5043 82.5159L23.5043 89.4159H26.1043L26.1043 82.5159H23.5043ZM24.8043 90.7159L35.1543 90.7159L35.1543 88.1159L24.8043 88.1159L24.8043 90.7159ZM15.7043 80.3159L8.1543 80.3159L8.1543 82.9159L15.7043 82.9159L15.7043 80.3159ZM6.8543 81.6159L6.8543 89.4159H9.4543L9.4543 81.6159H6.8543ZM8.1543 90.7159L16.8043 90.7159L16.8043 88.1159L8.1543 88.1159L8.1543 90.7159ZM18.1043 89.4159L18.1043 82.7159H15.5043L15.5043 89.4159H18.1043ZM17.7235 81.7967L16.6235 80.6967L14.7851 82.5351L15.8851 83.6351L17.7235 81.7967ZM35.1543 42.7003H36.4543V42.1618L36.0735 41.781L35.1543 42.7003ZM35.1543 64.6503L35.1543 65.9503H36.4543L36.4543 64.6503H35.1543ZM0.154294 64.6503H-1.14571L-1.14571 65.9503H0.154294L0.154294 64.6503ZM0.154294 42.7003L-0.764944 41.781L-1.14571 42.1618L-1.14571 42.7003H0.154294ZM6.8043 36.0503L6.8043 34.7503H6.26582L5.88506 35.131L6.8043 36.0503ZM28.5043 36.0503L29.4235 35.131L29.0428 34.7503H28.5043V36.0503ZM9.15429 54.6503H7.85429L7.85429 55.9503H9.15429L9.15429 54.6503ZM26.1543 54.6503V55.9503H27.4543V54.6503H26.1543ZM26.1543 47.1503H27.4543V46.6118L27.0735 46.231L26.1543 47.1503ZM25.0543 46.0503L25.9735 45.131L25.5928 44.7503H25.0543V46.0503ZM10.2543 46.0503L10.2543 44.7503H9.71582L9.33506 45.131L10.2543 46.0503ZM9.15429 47.1503L8.23506 46.231L7.85429 46.6118L7.85429 47.1503H9.15429ZM33.8543 42.7003L33.8543 64.6503H36.4543L36.4543 42.7003H33.8543ZM35.1543 63.3503L0.154294 63.3503L0.154294 65.9503L35.1543 65.9503L35.1543 63.3503ZM1.45429 64.6503L1.45429 42.7003H-1.14571L-1.14571 64.6503H1.45429ZM1.07353 43.6195L7.72353 36.9695L5.88506 35.131L-0.764944 41.781L1.07353 43.6195ZM6.8043 37.3503L28.5043 37.3503V34.7503L6.8043 34.7503L6.8043 37.3503ZM27.5851 36.9695L34.2351 43.6195L36.0735 41.781L29.4235 35.131L27.5851 36.9695ZM9.15429 55.9503L26.1543 55.9503L26.1543 53.3503L9.15429 53.3503L9.15429 55.9503ZM27.4543 54.6503L27.4543 47.1503H24.8543L24.8543 54.6503H27.4543ZM27.0735 46.231L25.9735 45.131L24.1351 46.9695L25.2351 48.0695L27.0735 46.231ZM25.0543 44.7503L10.2543 44.7503L10.2543 47.3503L25.0543 47.3503V44.7503ZM9.33506 45.131L8.23506 46.231L10.0735 48.0695L11.1735 46.9695L9.33506 45.131ZM7.85429 47.1503L7.85429 54.6503H10.4543L10.4543 47.1503H7.85429ZM35.1543 22.2987H36.4543V20.9987H35.1543V22.2987ZM35.1543 32.2987V33.5987H36.4543V32.2987H35.1543ZM28.3543 32.2987L27.967 33.5397L28.1562 33.5987H28.3543V32.2987ZM0.154294 23.4987H-1.14571L-1.14571 24.4549L-0.232962 24.7397L0.154294 23.4987ZM0.154294 9.5987L-0.233588 8.35792L-1.14571 8.64306L-1.14571 9.5987H0.154294ZM28.3043 0.798704L28.3043 -0.501296H28.1058L27.9164 -0.44208L28.3043 0.798704ZM35.1543 0.798704H36.4543L36.4543 -0.501296H35.1543L35.1543 0.798704ZM35.1543 10.7987V12.0987H36.4543V10.7987H35.1543ZM29.4543 10.7987L29.4543 9.49871H29.2943L29.139 9.53752L29.4543 10.7987ZM28.2543 11.0987L27.939 9.83752L26.9543 10.0837L26.9543 11.0987H28.2543ZM28.2543 21.9987H26.9543V23.0137L27.939 23.2599L28.2543 21.9987ZM29.4543 22.2987L29.139 23.5599L29.2943 23.5987H29.4543V22.2987ZM8.05429 16.5487L7.677 15.3047L3.57501 16.5487L7.677 17.7928L8.05429 16.5487ZM20.2543 20.2487L19.877 21.4928L21.5543 22.0014L21.5543 20.2487H20.2543ZM20.2543 12.8487H21.5543V11.096L19.877 11.6047L20.2543 12.8487ZM33.8543 22.2987L33.8543 32.2987H36.4543L36.4543 22.2987H33.8543ZM35.1543 30.9987L28.3543 30.9987V33.5987L35.1543 33.5987V30.9987ZM28.7416 31.0577L0.541551 22.2577L-0.232962 24.7397L27.967 33.5397L28.7416 31.0577ZM1.45429 23.4987L1.45429 9.5987H-1.14571L-1.14571 23.4987H1.45429ZM0.542177 10.8395L28.6922 2.03949L27.9164 -0.44208L-0.233588 8.35792L0.542177 10.8395ZM28.3043 2.0987H35.1543L35.1543 -0.501296H28.3043L28.3043 2.0987ZM33.8543 0.798704L33.8543 10.7987H36.4543L36.4543 0.798704H33.8543ZM35.1543 9.49871H29.4543L29.4543 12.0987H35.1543L35.1543 9.49871ZM29.139 9.53752L27.939 9.83752L28.5696 12.3599L29.7696 12.0599L29.139 9.53752ZM26.9543 11.0987L26.9543 21.9987H29.5543L29.5543 11.0987H26.9543ZM27.939 23.2599L29.139 23.5599L29.7696 21.0375L28.5696 20.7375L27.939 23.2599ZM29.4543 23.5987H35.1543V20.9987H29.4543V23.5987ZM7.677 17.7928L19.877 21.4928L20.6316 19.0047L8.43159 15.3047L7.677 17.7928ZM21.5543 20.2487L21.5543 12.8487H18.9543L18.9543 20.2487H21.5543ZM19.877 11.6047L7.677 15.3047L8.43159 17.7928L20.6316 14.0928L19.877 11.6047Z" fill="black"/>
</svg>
